<svg width="24" height="24" viewBox="0 0 24 24" fill="none" xmlns="http://www.w3.org/2000/svg">
  <path d="M12 2C13.1 2 14 2.9 14 4V8C14 9.1 13.1 10 12 10C10.9 10 10 9.1 10 8V4C10 2.9 10.9 2 12 2Z" fill="currentColor"/>
  <path d="M21 9C21 5.13 17.87 2 14 2V4C16.76 4 19 6.24 19 9S16.76 14 14 14V16C17.87 16 21 12.87 21 9Z" fill="currentColor"/>
  <path d="M3 9C3 5.13 6.13 2 10 2V4C7.24 4 5 6.24 5 9S7.24 14 10 14V16C6.13 16 3 12.87 3 9Z" fill="currentColor"/>
  <path d="M12 14C13.1 14 14 14.9 14 16V20C14 21.1 13.1 22 12 22C10.9 22 10 21.1 10 20V16C10 14.9 10.9 14 12 14Z" fill="currentColor"/>
</svg> 